<?xml version="1.0" standalone="no"?>
<!DOCTYPE svg PUBLIC "-//W3C//DTD SVG 20010904//EN"
 "http://www.w3.org/TR/2001/REC-SVG-20010904/DTD/svg10.dtd">
<svg version="1.0" xmlns="http://www.w3.org/2000/svg"
 width="1040.000000pt" height="586.000000pt" viewBox="0 0 1040.000000 586.000000"
 preserveAspectRatio="xMidYMid meet">
<metadata>
Created by potrace 1.15, written by Peter Selinger 2001-2017
</metadata>
<g transform="translate(0.000000,586.000000) scale(0.100000,-0.100000)"
fill="#000000" stroke="none">
<path d="M10005 5534 c-22 -8 -53 -21 -70 -28 -35 -15 -133 -46 -220 -71 -64
-18 -75 -22 -146 -54 -25 -12 -57 -21 -72 -21 -15 0 -27 -4 -27 -10 0 -5 -13
-10 -29 -10 -17 0 -33 -4 -36 -10 -3 -5 -17 -10 -31 -10 -13 0 -24 -4 -24 -10
0 -5 -9 -10 -20 -10 -10 0 -29 -4 -42 -9 -13 -5 -41 -14 -63 -20 -22 -7 -49
-16 -60 -20 -19 -8 -31 -12 -115 -41 -19 -7 -43 -17 -52 -21 -10 -5 -27 -9
-37 -9 -11 0 -23 -4 -26 -10 -3 -5 -21 -10 -39 -10 -19 0 -51 -8 -72 -17 -22
-9 -45 -16 -52 -14 -8 1 -21 -4 -30 -11 -10 -8 -51 -22 -92 -32 -89 -21 -198
-54 -222 -67 -10 -5 -26 -9 -36 -9 -10 0 -35 -9 -57 -20 -22 -11 -52 -20 -67
-20 -15 0 -29 -4 -32 -9 -3 -5 -20 -11 -38 -14 -52 -9 -93 -19 -98 -26 -3 -3
-30 -19 -60 -34 -86 -42 -122 -92 -95 -133 16 -24 49 -32 60 -14 3 6 15 10 26
10 10 0 27 8 37 18 27 25 59 42 81 42 17 0 46 12 123 51 10 5 29 9 43 9 14 0
33 4 43 9 9 5 37 15 62 22 25 7 50 16 55 20 6 4 29 10 53 14 23 4 49 13 56 21
8 8 24 14 35 14 11 0 23 5 26 10 3 6 17 10 31 10 24 0 115 21 182 42 19 5 36
8 38 5 3 -3 -2 -40 -10 -83 -9 -44 -17 -115 -20 -159 -2 -44 -7 -91 -10 -105
-12 -54 -15 -79 -26 -185 -6 -60 -18 -137 -25 -170 -8 -33 -17 -107 -20 -165
-3 -58 -11 -123 -17 -145 -5 -22 -12 -80 -14 -130 -2 -49 -9 -119 -15 -155
-23 -138 -29 -177 -35 -225 -4 -27 -15 -62 -25 -77 -29 -41 -25 -80 11 -96 28
-13 32 -11 70 20 33 27 40 39 40 70 0 20 5 40 10 43 6 3 10 25 10 49 0 23 4
46 9 52 5 5 17 96 25 202 9 106 19 199 23 205 4 7 11 66 15 132 8 123 11 149
21 175 7 19 15 99 25 256 5 66 11 125 15 130 3 6 13 66 21 134 12 94 21 131
37 153 13 19 19 37 15 52 -3 13 -3 36 0 52 5 25 14 31 80 52 40 13 78 29 84
36 6 7 35 16 65 20 30 3 57 11 60 16 4 5 15 9 26 9 10 0 19 5 19 10 0 6 14 10
30 10 17 0 30 5 30 10 0 6 14 10 30 10 17 0 30 4 30 8 0 4 21 14 48 22 26 7
62 22 80 32 18 10 44 18 57 18 14 0 25 5 25 10 0 6 15 10 34 10 19 0 37 4 41
9 3 5 27 17 53 25 26 9 63 27 82 40 19 12 52 28 72 35 20 7 42 19 49 28 7 8
23 19 36 24 28 10 32 49 6 48 -10 0 -36 -7 -58 -15z"/>
<path d="M2915 4368 c-28 -9 -107 -25 -165 -33 -14 -2 -50 -11 -80 -20 -30 -9
-75 -21 -100 -26 -130 -30 -183 -45 -237 -70 -24 -10 -56 -19 -72 -19 -17 0
-33 -4 -36 -10 -3 -5 -17 -10 -30 -10 -13 0 -27 -4 -30 -10 -3 -5 -19 -10 -36
-10 -16 0 -37 -4 -47 -9 -9 -6 -34 -13 -54 -16 -21 -3 -44 -12 -52 -20 -8 -8
-28 -15 -44 -15 -16 0 -32 -3 -36 -7 -9 -9 -78 -33 -96 -33 -9 0 -33 -9 -55
-20 -22 -11 -45 -20 -52 -20 -6 0 -60 -16 -119 -35 -58 -19 -115 -35 -125 -35
-19 0 -25 -2 -84 -32 -16 -9 -46 -19 -65 -23 -41 -8 -113 -31 -155 -50 -37
-16 -76 -29 -135 -45 -65 -18 -130 -51 -130 -67 0 -7 -4 -13 -10 -13 -14 0
-12 -32 4 -52 25 -33 200 -13 247 28 8 8 21 14 27 14 6 0 15 6 19 13 12 20 59
42 143 67 41 12 83 26 92 31 10 5 27 9 37 9 11 0 23 5 26 10 3 6 17 10 30 10
14 0 40 9 60 20 20 11 44 20 55 20 10 0 21 4 24 9 3 5 26 12 51 15 24 4 47 11
50 17 4 5 19 9 35 9 15 0 30 5 32 10 3 9 78 32 258 80 25 7 53 16 62 21 10 5
26 9 36 9 10 0 23 5 29 11 6 6 17 12 24 13 34 7 76 18 94 26 11 4 41 14 68 20
26 7 47 16 47 20 0 4 15 10 33 13 28 4 168 42 253 68 17 5 40 9 51 9 11 0 32
9 46 20 15 12 40 20 65 20 22 0 53 7 68 15 16 8 37 15 47 15 24 0 64 38 51 49
-15 14 -86 19 -119 9z"/>
<path d="M5859 4248 c-13 -39 -41 -231 -45 -313 -4 -60 -11 -116 -16 -122 -7
-9 -7 -18 2 -28 10 -12 10 -18 0 -30 -10 -12 -10 -18 0 -30 10 -12 10 -18 0
-30 -8 -9 -16 -64 -21 -133 -14 -216 -21 -287 -29 -297 -4 -5 -13 -66 -20
-135 -7 -69 -19 -135 -26 -147 -8 -13 -14 -51 -14 -93 0 -38 -4 -70 -8 -70 -5
0 -10 -38 -11 -84 -1 -56 -7 -95 -18 -118 -24 -46 -24 -137 -1 -152 14 -8 23
-8 38 2 11 6 29 12 40 12 25 0 21 -18 71 330 6 41 12 100 13 130 1 31 6 62 10
69 5 7 8 31 8 54 -1 22 4 49 10 60 15 28 29 125 39 277 5 74 13 167 18 205 5
39 12 131 16 205 8 182 13 239 25 280 14 50 12 92 -6 128 -12 25 -22 32 -45
32 -16 0 -29 -1 -30 -2z"/>
<path d="M8317 4226 c-32 -30 -32 -24 -7 -113 11 -40 17 -78 14 -86 -7 -19 37
-30 70 -17 31 11 32 17 6 50 -29 38 -27 105 4 126 28 18 25 40 -7 47 -12 2
-29 7 -38 11 -9 4 -25 -3 -42 -18z"/>
<path d="M8361 3869 c-10 -11 -24 -39 -30 -62 -7 -23 -17 -50 -22 -59 -5 -10
-9 -26 -9 -37 0 -10 -7 -32 -15 -47 -8 -16 -15 -41 -15 -56 0 -32 -35 -118
-49 -118 -5 0 -15 -20 -22 -45 -7 -25 -16 -45 -20 -45 -4 0 -14 -18 -23 -40
-10 -25 -27 -45 -48 -56 -31 -16 -32 -16 -50 6 -13 16 -18 41 -19 94 -1 39 -4
85 -8 101 -4 17 -3 48 2 70 20 92 20 113 -3 150 -12 19 -27 35 -34 35 -17 0
-66 -38 -66 -51 0 -6 -18 -37 -40 -69 -22 -32 -40 -63 -40 -68 0 -5 -11 -22
-25 -38 -14 -16 -25 -33 -25 -38 0 -9 -47 -56 -56 -56 -2 0 -4 30 -4 66 0 103
-23 173 -77 231 -15 16 -63 16 -83 0 -20 -15 -50 -64 -90 -147 -17 -36 -36
-73 -41 -82 -5 -10 -9 -24 -9 -32 0 -7 -7 -19 -15 -26 -13 -11 -15 -7 -15 23
0 20 5 39 10 42 6 3 10 26 10 50 0 34 -5 47 -22 59 -12 9 -28 16 -36 16 -24 0
-62 -48 -62 -79 0 -16 -4 -32 -9 -35 -4 -3 -11 -27 -13 -53 -3 -27 -17 -72
-32 -102 -14 -30 -26 -64 -26 -75 0 -12 -7 -34 -16 -51 -17 -31 -38 -245 -28
-277 6 -19 30 -22 82 -12 26 5 36 18 76 98 25 50 46 96 46 101 0 6 9 17 20 25
11 8 20 18 20 23 0 5 9 22 20 37 11 15 25 51 32 79 6 28 15 51 20 51 4 0 8 9
8 19 0 11 11 41 25 67 14 26 25 52 25 58 0 7 13 27 30 46 l29 35 0 -80 c1 -53
-6 -102 -19 -143 -11 -35 -20 -80 -20 -100 -1 -21 -7 -48 -15 -62 -29 -50 -8
-110 39 -110 44 0 146 101 186 185 20 41 100 135 115 135 7 0 15 -19 19 -42
20 -141 40 -189 87 -209 31 -12 102 -4 122 14 6 7 24 18 39 26 15 8 48 40 73
73 26 32 50 58 55 58 5 0 10 -12 12 -27 5 -49 77 -43 104 9 12 24 14 36 5 55
-17 37 -16 232 2 268 8 17 17 67 20 112 5 69 4 85 -12 104 -23 29 -47 32 -70
8z"/>
<path d="M6796 3592 c-40 -27 -75 -76 -118 -162 -12 -25 -27 -49 -34 -55 -6
-5 -21 -53 -33 -105 -13 -52 -27 -111 -32 -131 -13 -54 -11 -98 9 -154 15 -42
23 -52 54 -62 47 -15 104 1 155 45 21 18 41 32 45 32 5 0 8 6 8 14 0 17 47 49
60 41 6 -3 10 -16 10 -28 1 -53 48 -71 107 -42 36 18 49 67 26 91 -8 8 -19 30
-24 49 -10 34 -6 55 21 130 32 87 40 167 20 180 -5 3 -10 17 -10 29 0 37 -23
50 -64 36 -26 -8 -36 -18 -38 -38 -3 -20 -6 -14 -12 23 -12 81 -15 90 -34 113
-26 30 -68 28 -116 -6z m44 -180 c0 -32 37 -56 67 -45 13 5 15 3 8 -13 -4 -10
-10 -32 -13 -48 -3 -17 -13 -39 -23 -50 -11 -11 -19 -26 -19 -33 0 -7 -4 -13
-10 -13 -5 0 -10 -5 -10 -11 0 -12 -73 -105 -99 -126 -8 -7 -22 -13 -32 -13
-14 0 -16 10 -15 59 1 32 7 65 13 73 7 8 15 34 19 58 4 25 15 53 25 63 11 10
26 32 35 50 42 87 54 98 54 49z"/>
<path d="M3333 3592 c-16 -13 -23 -31 -26 -72 -3 -30 -8 -67 -12 -82 -6 -22
-3 -27 17 -34 12 -4 32 -7 44 -5 36 4 51 -35 58 -153 3 -59 10 -115 15 -124 4
-9 11 -73 15 -142 10 -170 13 -207 20 -218 3 -5 2 -39 -2 -75 -5 -37 -4 -95 1
-129 5 -35 10 -121 11 -193 3 -135 19 -201 59 -233 24 -20 73 -6 114 34 19 19
38 34 41 34 7 0 48 60 82 119 8 14 17 28 20 31 12 12 30 51 30 64 0 7 6 19 14
25 20 16 56 -19 56 -54 0 -30 65 -105 91 -105 10 0 21 -5 25 -11 12 -20 102
-1 146 31 23 17 45 30 50 30 12 0 53 43 99 104 38 51 49 55 67 26 7 -11 20
-20 29 -20 9 0 25 -8 35 -17 26 -23 170 -22 194 1 8 9 21 16 28 16 21 0 110
67 128 97 42 67 43 74 30 178 -11 85 -52 168 -122 246 -60 67 -73 79 -85 79
-7 0 -15 4 -17 8 -1 4 -17 18 -35 30 -37 26 -103 29 -138 6 -34 -22 -31 -32
13 -51 20 -8 48 -26 62 -38 98 -92 120 -114 120 -124 0 -6 4 -11 10 -11 14 0
70 -86 70 -109 0 -11 5 -23 10 -26 15 -10 12 -71 -5 -85 -8 -7 -15 -20 -15
-29 0 -36 -106 -101 -161 -101 -23 0 -44 10 -64 28 -59 53 -65 65 -75 163 -19
183 -25 198 -82 199 -22 0 -31 -7 -42 -32 -8 -21 -10 -39 -5 -50 5 -9 9 -61 9
-116 0 -76 -3 -101 -14 -105 -7 -3 -17 -23 -21 -44 -10 -55 -78 -141 -128
-163 -37 -15 -45 -16 -69 -3 -47 23 -58 68 -58 239 0 84 4 164 10 179 12 32
-13 101 -40 108 -50 13 -88 -46 -89 -140 -1 -44 -6 -59 -52 -160 -16 -34 -29
-66 -29 -70 0 -5 -9 -16 -20 -25 -11 -10 -22 -29 -26 -43 -3 -14 -19 -39 -35
-56 -16 -17 -29 -36 -29 -42 0 -18 -41 -97 -51 -97 -5 0 -9 47 -9 104 0 59 -4
108 -10 111 -5 3 -10 32 -10 63 -1 31 -5 77 -9 102 -5 24 -6 66 -2 92 5 26 4
51 0 55 -4 4 -10 64 -12 133 -5 129 -37 380 -63 485 -9 39 -90 162 -114 175
-23 12 -21 13 -47 -8z"/>
<path d="M6380 3560 c-8 -5 -39 -15 -69 -22 -45 -10 -64 -22 -112 -70 -65 -64
-84 -95 -94 -152 -9 -45 10 -111 40 -142 37 -37 162 -134 174 -134 21 0 101
-84 101 -107 0 -13 -12 -30 -31 -43 -28 -20 -37 -22 -127 -15 -73 5 -107 3
-139 -8 -23 -8 -47 -11 -54 -6 -7 4 -18 5 -26 2 -16 -6 -75 20 -93 42 -18 22
-56 18 -80 -7 -28 -30 -26 -81 3 -105 13 -10 26 -27 30 -37 7 -18 17 -19 195
-13 318 10 411 43 442 158 9 32 7 44 -11 81 -21 41 -133 158 -151 158 -27 0
-158 118 -158 142 0 47 76 128 119 128 11 0 23 5 26 10 3 6 32 10 63 10 48 0
61 -4 81 -25 26 -28 48 -31 76 -11 17 12 18 18 6 55 -6 23 -19 45 -27 48 -8 3
-14 14 -14 24 0 10 -6 19 -14 19 -8 0 -16 7 -20 15 -6 17 -111 21 -136 5z"/>
<path d="M2076 3421 c-17 -9 -34 -30 -38 -46 -10 -35 -12 -158 -3 -186 4 -11
1 -34 -5 -50 -7 -16 -9 -37 -5 -46 4 -10 7 -146 7 -303 -1 -185 3 -289 10
-297 6 -8 7 -30 3 -60 -5 -27 -10 -138 -11 -248 -2 -110 -6 -236 -9 -280 -4
-44 -8 -233 -11 -420 -3 -242 -9 -361 -19 -414 -8 -40 -15 -102 -15 -137 0
-67 -17 -196 -30 -229 -5 -11 -11 -38 -14 -60 -13 -86 -19 -111 -32 -125 -7
-8 -16 -39 -20 -68 -4 -32 -13 -58 -24 -65 -9 -7 -23 -25 -31 -42 -19 -41 -56
-56 -114 -49 -25 4 -52 12 -58 19 -16 15 -56 24 -137 31 -36 2 -78 11 -95 19
-16 7 -52 16 -80 20 -27 4 -67 18 -87 31 -21 13 -41 24 -46 24 -4 0 -23 13
-42 30 -19 16 -41 29 -47 30 -19 0 -148 130 -167 168 -9 18 -24 36 -32 39 -7
3 -14 10 -14 17 0 6 -14 24 -30 40 -17 16 -30 39 -30 50 0 12 -7 30 -15 40
-17 23 -21 146 -5 146 6 0 10 9 10 19 0 11 4 22 10 26 15 9 -1 35 -22 35 -12
0 -35 -15 -53 -34 -41 -44 -61 -131 -45 -201 12 -54 47 -135 58 -135 4 0 13
-12 19 -27 7 -16 26 -44 43 -63 16 -19 30 -38 30 -41 0 -10 81 -89 91 -89 5 0
9 -7 9 -15 0 -8 6 -15 14 -15 7 0 24 -16 37 -35 13 -19 31 -37 40 -40 9 -3 24
-14 34 -25 10 -11 26 -20 36 -20 9 0 19 -3 21 -7 6 -16 68 -53 86 -53 10 0 23
-5 30 -12 14 -14 118 -48 149 -48 12 0 26 -6 30 -14 13 -24 297 -45 346 -26
75 29 87 35 87 47 0 6 9 15 20 18 11 3 20 15 20 26 0 10 3 19 8 19 10 0 32 50
32 72 0 19 19 59 33 69 13 9 28 76 38 169 5 47 16 104 24 126 9 23 17 81 19
130 2 49 8 125 14 169 10 71 14 140 27 455 13 309 19 1154 10 1350 -2 47 1
148 7 225 9 118 15 147 35 183 20 36 23 48 15 70 -6 15 -13 39 -16 53 -7 31
-43 79 -59 78 -7 0 -25 -8 -41 -18z"/>
<path d="M3902 3207 c-29 -31 -28 -39 15 -97 28 -38 44 -50 64 -50 38 0 50 20
43 72 -8 56 -11 60 -53 81 -43 21 -43 21 -69 -6z"/>
<path d="M3127 2698 c-10 -15 -15 -53 -16 -106 -1 -46 -6 -91 -10 -100 -10
-20 -31 -68 -41 -97 -18 -50 -41 -96 -55 -112 -35 -39 -65 -95 -65 -122 0 -55
-96 -95 -120 -50 -33 60 -50 165 -31 185 5 5 12 36 15 69 16 161 24 222 30
240 7 22 -45 95 -68 95 -7 0 -24 -12 -37 -27 -23 -26 -26 -37 -28 -133 -2 -57
-7 -112 -12 -122 -5 -9 -9 -24 -9 -33 0 -9 -9 -35 -20 -57 -11 -23 -20 -48
-20 -55 0 -8 -12 -25 -26 -38 -24 -22 -84 -109 -84 -121 0 -3 -9 -14 -20 -26
-11 -12 -20 -28 -20 -35 0 -7 -13 -33 -30 -59 -29 -46 -29 -71 -1 -88 14 -9
101 5 101 16 0 5 11 24 25 42 14 18 25 38 25 44 0 12 35 78 52 100 6 6 16 12
22 12 12 0 36 -45 36 -67 0 -16 27 -60 53 -85 24 -25 91 -24 128 3 51 36 126
120 145 161 52 112 100 201 109 202 6 1 13 -30 18 -69 13 -122 16 -138 27
-149 5 -5 10 -18 10 -28 0 -10 4 -26 9 -36 6 -9 12 -30 16 -45 3 -15 18 -41
34 -57 58 -61 131 -24 131 66 l0 44 -38 0 -37 0 -22 78 c-21 72 -28 119 -38
252 -12 159 -24 249 -35 271 -7 13 -16 31 -20 39 -4 8 -21 16 -38 18 -23 2
-34 -2 -45 -20z"/>
</g>
</svg>
